<?xml version="1.0" standalone="no"?>
<!DOCTYPE svg PUBLIC "-//W3C//DTD SVG 20010904//EN"
 "http://www.w3.org/TR/2001/REC-SVG-20010904/DTD/svg10.dtd">
<svg version="1.0" xmlns="http://www.w3.org/2000/svg"
 width="512.000000pt" height="512.000000pt" viewBox="0 0 512.000000 512.000000"
 preserveAspectRatio="xMidYMid meet">
<metadata>
Created by potrace 1.14, written by Peter Selinger 2001-2017
</metadata>
<g transform="translate(0.000000,512.000000) scale(0.100000,-0.100000)"
fill="#000000" stroke="none">
<path d="M2530 4094 c-129 -20 -208 -38 -238 -53 -9 -5 -42 -19 -72 -32 -30
-13 -67 -31 -82 -41 -14 -10 -31 -18 -37 -18 -6 0 -11 -4 -11 -10 0 -5 -12
-16 -27 -24 -31 -16 -95 -77 -133 -126 -89 -115 -152 -291 -152 -427 0 -32 -6
-36 -76 -49 -32 -6 -168 -79 -199 -106 -58 -52 -113 -112 -113 -125 0 -7 -4
-13 -8 -13 -12 0 -60 -116 -69 -165 -9 -56 -10 -211 0 -264 15 -80 56 -169
103 -220 l34 -39 -35 -26 c-48 -37 -167 -100 -245 -129 -36 -14 -74 -29 -85
-33 -11 -4 -24 -8 -30 -9 -5 -1 -30 -7 -55 -14 -98 -28 -142 -33 -310 -36
-136 -3 -178 1 -344 33 l-50 10 25 -19 c63 -50 139 -103 189 -132 30 -17 57
-34 58 -39 2 -4 10 -8 18 -8 7 0 28 -8 46 -18 36 -20 233 -98 233 -92 0 0 26
-8 58 -19 31 -11 57 -18 57 -16 0 2 14 0 32 -5 30 -9 56 -14 168 -30 55 -8
339 -6 395 3 17 3 46 8 65 11 l35 6 1 -57 c0 -32 4 -76 8 -98 9 -43 44 -126
59 -136 5 -3 8 -9 8 -13 -2 -8 50 -79 65 -88 5 -4 30 -25 55 -48 68 -62 222
-135 329 -155 87 -17 235 -14 325 6 93 20 224 75 262 111 l21 20 24 -32 c78
-107 275 -170 433 -139 28 6 59 11 70 13 45 5 157 71 199 116 42 45 76 122 76
173 0 14 4 17 18 12 9 -4 69 -9 132 -11 150 -4 244 20 353 89 105 68 207 196
233 292 2 6 10 35 19 65 18 66 21 164 6 240 -16 78 -85 212 -141 272 l-49 52
65 64 c35 35 64 68 64 72 0 5 6 15 14 22 33 33 82 157 92 233 12 96 11 117
-20 280 -8 38 -62 159 -86 190 -42 54 -122 127 -180 164 -36 22 -69 44 -75 49
-14 11 -115 51 -143 57 -12 2 -25 6 -30 8 -30 19 -259 28 -355 15 l-47 -7 -25
49 c-36 72 -170 230 -194 230 -4 0 -16 9 -26 20 -10 11 -24 20 -32 20 -7 0
-13 4 -13 9 0 9 -145 77 -185 86 -5 2 -28 7 -50 13 -108 28 -301 36 -425 16z"/>
<path d="M3525 3905 c-24 -25 -31 -40 -29 -66 2 -48 2 -47 29 -71 63 -54 158
-39 196 32 15 28 16 37 5 64 -32 78 -141 101 -201 41z"/>
<path d="M4370 2573 c-45 -18 -59 -85 -25 -123 27 -29 74 -40 107 -24 32 17
38 26 45 66 9 56 -67 105 -127 81z"/>
<path d="M1410 1705 c-46 -32 -53 -88 -19 -137 33 -46 99 -66 144 -42 14 7 25
10 25 7 0 -3 9 5 19 18 42 53 23 128 -40 160 -47 23 -91 22 -129 -6z"/>
<path d="M1577 1439 c-62 -48 22 -138 88 -95 31 20 32 54 5 84 -12 12 -24 22
-28 23 -4 0 -15 2 -24 4 -10 2 -28 -5 -41 -16z"/>
</g>
</svg>
